REM DIRINDEX 1\6,1\2\7,1\2\8,1\2\9,1\3\10,1\3\11,1\4\12,1\4\13,1\4\14,1\5\15,1\5\16,1\5\17
REM DIRNAME cjc040,folder01,folder02,folder03,folder04,folder05,folder06,folder07,folder08,folder09,folder10,folder11,folder12,folder13,folder14,folder15,folder16
TITLE ""
FILE "P2Q_t_0997-1014.mp3" MP3
  TRACK 01 AUDIO
    TITLE "10:cjc040_3650"
    INDEX 01 00:00:00
  TRACK 02 AUDIO
    TITLE "0:"
    INDEX 01 00:00:68
  TRACK 03 AUDIO
    TITLE "11:cjc040_3651"
    INDEX 01 00:01:54
  TRACK 04 AUDIO
    TITLE "0:"
    INDEX 01 00:05:24
  TRACK 05 AUDIO
    TITLE "10:cjc040_3652"
    INDEX 01 00:06:00
  TRACK 06 AUDIO
    TITLE "0:"
    INDEX 01 00:07:13
  TRACK 07 AUDIO
    TITLE "11:cjc040_3653"
    INDEX 01 00:07:70
  TRACK 08 AUDIO
    TITLE "0:"
    INDEX 01 00:10:39
  TRACK 09 AUDIO
    TITLE "10:cjc040_3654"
    INDEX 01 00:11:19
  TRACK 10 AUDIO
    TITLE "0:"
    INDEX 01 00:12:30
  TRACK 11 AUDIO
    TITLE "11:cjc040_3655"
    INDEX 01 00:13:06
  TRACK 12 AUDIO
    TITLE "0:"
    INDEX 01 00:14:45
  TRACK 13 AUDIO
    TITLE "10:cjc040_3656"
    INDEX 01 00:15:21
  TRACK 14 AUDIO
    TITLE "0:"
    INDEX 01 00:16:30
  TRACK 15 AUDIO
    TITLE "11:cjc040_3657"
    INDEX 01 00:17:10
  TRACK 16 AUDIO
    TITLE "0:"
    INDEX 01 00:19:28
  TRACK 17 AUDIO
    TITLE "10:cjc040_3658"
    INDEX 01 00:20:08
  TRACK 18 AUDIO
    TITLE "0:"
    INDEX 01 00:21:33
  TRACK 19 AUDIO
    TITLE "11:cjc040_3659"
    INDEX 01 00:22:11
  TRACK 20 AUDIO
    TITLE "0:"
    INDEX 01 00:24:69
  TRACK 21 AUDIO
    TITLE "10:cjc040_3660"
    INDEX 01 00:25:45
  TRACK 22 AUDIO
    TITLE "0:"
    INDEX 01 00:26:66
  TRACK 23 AUDIO
    TITLE "11:cjc040_3661"
    INDEX 01 00:27:47
  TRACK 24 AUDIO
    TITLE "0:"
    INDEX 01 00:30:42
  TRACK 25 AUDIO
    TITLE "10:cjc040_3662"
    INDEX 01 00:31:24
  TRACK 26 AUDIO
    TITLE "0:"
    INDEX 01 00:32:35
  TRACK 27 AUDIO
    TITLE "11:cjc040_3663"
    INDEX 01 00:33:13
  TRACK 28 AUDIO
    TITLE "0:"
    INDEX 01 00:36:23
  TRACK 29 AUDIO
    TITLE "10:cjc040_3664"
    INDEX 01 00:37:03
  TRACK 30 AUDIO
    TITLE "0:"
    INDEX 01 00:38:12
  TRACK 31 AUDIO
    TITLE "11:cjc040_3665"
    INDEX 01 00:38:67
  TRACK 32 AUDIO
    TITLE "0:"
    INDEX 01 00:40:26
  TRACK 33 AUDIO
    TITLE "10:cjc040_3666"
    INDEX 01 00:41:06
  TRACK 34 AUDIO
    TITLE "0:"
    INDEX 01 00:42:27
  TRACK 35 AUDIO
    TITLE "11:cjc040_3667"
    INDEX 01 00:43:05
  TRACK 36 AUDIO
    TITLE "0:"
    INDEX 01 00:45:18
  TRACK 37 AUDIO
    TITLE "10:cjc040_3668"
    INDEX 01 00:46:04
  TRACK 38 AUDIO
    TITLE "0:"
    INDEX 01 00:47:23
  TRACK 39 AUDIO
    TITLE "11:cjc040_3669"
    INDEX 01 00:48:00
  TRACK 40 AUDIO
    TITLE "0:"
    INDEX 01 00:50:60
  TRACK 41 AUDIO
    TITLE "10:cjc040_3670"
    INDEX 01 00:51:42
  TRACK 42 AUDIO
    TITLE "0:"
    INDEX 01 00:52:49
  TRACK 43 AUDIO
    TITLE "11:cjc040_3671"
    INDEX 01 00:53:27
  TRACK 44 AUDIO
    TITLE "0:"
    INDEX 01 00:55:69
  TRACK 45 AUDIO
    TITLE "10:cjc040_3672"
    INDEX 01 00:56:43
  TRACK 46 AUDIO
    TITLE "0:"
    INDEX 01 00:57:45
  TRACK 47 AUDIO
    TITLE "11:cjc040_3673"
    INDEX 01 00:58:28
  TRACK 48 AUDIO
    TITLE "0:"
    INDEX 01 00:59:69
  TRACK 49 AUDIO
    TITLE "10:cjc040_3674"
    INDEX 01 01:00:55
  TRACK 50 AUDIO
    TITLE "0:"
    INDEX 01 01:02:05
  TRACK 51 AUDIO
    TITLE "11:cjc040_3675"
    INDEX 01 01:02:52
  TRACK 52 AUDIO
    TITLE "0:"
    INDEX 01 01:05:60
  TRACK 53 AUDIO
    TITLE "10:cjc040_3676"
    INDEX 01 01:06:32
  TRACK 54 AUDIO
    TITLE "0:"
    INDEX 01 01:07:59
  TRACK 55 AUDIO
    TITLE "11:cjc040_3677"
    INDEX 01 01:08:36
  TRACK 56 AUDIO
    TITLE "0:"
    INDEX 01 01:10:53
  TRACK 57 AUDIO
    TITLE "10:cjc040_3678"
    INDEX 01 01:11:33
  TRACK 58 AUDIO
    TITLE "0:"
    INDEX 01 01:12:42
  TRACK 59 AUDIO
    TITLE "11:cjc040_3679"
    INDEX 01 01:13:20
  TRACK 60 AUDIO
    TITLE "0:"
    INDEX 01 01:15:29
  TRACK 61 AUDIO
    TITLE "10:cjc040_3680"
    INDEX 01 01:16:12
  TRACK 62 AUDIO
    TITLE "0:"
    INDEX 01 01:17:26
  TRACK 63 AUDIO
    TITLE "11:cjc040_3681"
    INDEX 01 01:18:07
  TRACK 64 AUDIO
    TITLE "0:"
    INDEX 01 01:21:47
  TRACK 65 AUDIO
    TITLE "10:cjc040_3682"
    INDEX 01 01:22:25
  TRACK 66 AUDIO
    TITLE "0:"
    INDEX 01 01:23:56
  TRACK 67 AUDIO
    TITLE "11:cjc040_3683"
    INDEX 01 01:24:32
  TRACK 68 AUDIO
    TITLE "0:"
    INDEX 01 01:25:72
  TRACK 69 AUDIO
    TITLE "10:cjc040_3684"
    INDEX 01 01:26:48
  TRACK 70 AUDIO
    TITLE "0:"
    INDEX 01 01:27:48
  TRACK 71 AUDIO
    TITLE "11:cjc040_3685"
    INDEX 01 01:28:33
  TRACK 72 AUDIO
    TITLE "0:"
    INDEX 01 01:30:56
